<?xml version="1.0" standalone="no"?>
<!DOCTYPE svg PUBLIC "-//W3C//DTD SVG 20010904//EN"
 "http://www.w3.org/TR/2001/REC-SVG-20010904/DTD/svg10.dtd">
<svg version="1.0" xmlns="http://www.w3.org/2000/svg"
 width="500.000000pt" height="500.000000pt" viewBox="0 0 500.000000 500.000000"
 preserveAspectRatio="xMidYMid meet">
<metadata>
Created by potrace 1.14, written by Peter Selinger 2001-2017
</metadata>
<g transform="translate(0.000000,500.000000) scale(0.100000,-0.100000)"
fill="#000000" stroke="none">
<path d="M2344 4930 c-202 -20 -513 -106 -623 -172 -65 -39 -121 -112 -128
-168 l-6 -40 -27 43 c-61 96 -137 136 -261 137 -72 0 -93 -4 -137 -26 -91 -45
-147 -130 -158 -241 -8 -72 16 -178 79 -350 l44 -121 -51 -4 c-69 -6 -121 -33
-183 -94 -40 -40 -55 -64 -69 -109 -20 -71 -15 -173 11 -230 33 -71 132 -158
245 -214 65 -32 93 -51 78 -51 -64 0 -131 -32 -188 -88 -66 -67 -90 -124 -90
-218 0 -141 79 -253 206 -295 61 -19 96 -22 308 -27 l239 -4 -59 -27 c-122
-54 -200 -124 -222 -199 -20 -65 -15 -199 8 -246 53 -111 141 -167 269 -173
70 -4 87 0 217 44 l141 49 -32 -46 c-43 -60 -55 -100 -55 -180 0 -100 23 -154
95 -226 52 -53 69 -63 116 -74 88 -20 183 -10 261 27 l66 31 -14 -40 c-36
-103 -4 -239 75 -318 68 -67 110 -85 206 -85 l80 0 -28 -55 c-26 -51 -28 -62
-25 -145 4 -107 21 -149 90 -217 25 -26 44 -50 40 -52 -4 -2 -52 -10 -106 -16
-248 -32 -515 21 -765 150 -219 113 -413 304 -553 543 -50 86 -108 145 -171
176 -41 20 -59 22 -140 19 -62 -2 -104 -9 -128 -21 -61 -30 -116 -84 -144
-142 -24 -49 -27 -63 -23 -147 4 -114 18 -145 158 -355 116 -175 238 -315 352
-408 407 -328 839 -472 1351 -451 516 22 906 201 1139 524 77 106 78 121 43
350 -14 95 -23 178 -18 185 4 6 26 37 49 67 96 127 194 309 255 473 23 61 29
94 29 155 0 92 -19 140 -80 206 -56 61 -111 86 -187 86 l-61 0 36 88 c83 204
38 377 -120 456 -43 22 -66 26 -133 26 -95 0 -136 -11 -187 -52 -21 -16 -38
-27 -38 -24 0 3 7 35 16 73 21 89 16 213 -11 268 -29 61 -103 129 -160 148
-29 10 -79 17 -124 17 -87 0 -135 -18 -195 -71 l-38 -33 8 54 c5 30 9 91 9
135 0 67 -4 89 -28 137 -33 67 -91 121 -155 142 -66 23 -186 21 -241 -4 l-43
-20 6 22 c33 118 34 246 1 313 -50 103 -158 165 -285 165 l-70 0 10 26 c18 47
11 155 -14 215 l-23 57 66 5 c36 2 100 13 141 23 102 24 364 25 467 1 155 -36
305 -99 433 -182 71 -46 186 -156 380 -362 96 -102 138 -123 246 -123 122 0
239 71 289 175 24 50 31 150 16 213 -24 98 -217 339 -399 498 -223 195 -525
342 -830 404 -120 24 -400 34 -548 20z"/>
</g>
</svg>
